<svg width="24" height="24" viewBox="0 0 24 24" fill="none" xmlns="http://www.w3.org/2000/svg">
<rect width="24" height="24" fill="white"/>
<path fill-rule="evenodd" clip-rule="evenodd" d="M8 4C5.23858 4 3 6.23858 3 9V11C3 13.7614 5.23858 16 8 16H8.84456L14.808 18.951L13.3478 16H16C18.7614 16 21 13.7614 21 11V9C21 6.23858 18.7614 4 16 4H8Z" fill="white"/>
<path d="M8.84456 16L9.06632 15.5519C8.99738 15.5177 8.92149 15.5 8.84456 15.5V16ZM14.808 18.951L14.5863 19.3991C14.7785 19.4942 15.01 19.4562 15.1616 19.3045C15.3132 19.1529 15.3513 18.9214 15.2562 18.7292L14.808 18.951ZM13.3478 16V15.5C13.1749 15.5 13.0142 15.5893 12.923 15.7363C12.8318 15.8832 12.823 16.0668 12.8997 16.2218L13.3478 16ZM3.5 9C3.5 6.51472 5.51472 4.5 8 4.5V3.5C4.96243 3.5 2.5 5.96243 2.5 9H3.5ZM3.5 11V9H2.5V11H3.5ZM8 15.5C5.51472 15.5 3.5 13.4853 3.5 11H2.5C2.5 14.0376 4.96243 16.5 8 16.5V15.5ZM8.84456 15.5H8V16.5H8.84456V15.5ZM15.0298 18.5028L9.06632 15.5519L8.62281 16.4481L14.5863 19.3991L15.0298 18.5028ZM12.8997 16.2218L14.3599 19.1727L15.2562 18.7292L13.7959 15.7782L12.8997 16.2218ZM16 15.5H13.3478V16.5H16V15.5ZM20.5 11C20.5 13.4853 18.4853 15.5 16 15.5V16.5C19.0376 16.5 21.5 14.0376 21.5 11H20.5ZM20.5 9V11H21.5V9H20.5ZM16 4.5C18.4853 4.5 20.5 6.51472 20.5 9H21.5C21.5 5.96243 19.0376 3.5 16 3.5V4.5ZM8 4.5H16V3.5H8V4.5Z" fill="#999999"/>
</svg>
